<svg width="21" height="22" viewBox="0 0 21 22" fill="none" xmlns="http://www.w3.org/2000/svg">
<path d="M10.5 21.5C16.299 21.5 21 16.799 21 11C21 5.201 16.299 0.5 10.5 0.5C4.701 0.5 0 5.201 0 11C0 16.799 4.701 21.5 10.5 21.5ZM9.75 7.25C9.75 7.05109 9.82902 6.86032 9.96967 6.71967C10.1103 6.57902 10.3011 6.5 10.5 6.5C10.6989 6.5 10.8897 6.57902 11.0303 6.71967C11.171 6.86032 11.25 7.05109 11.25 7.25V10.25H14.25C14.4489 10.25 14.6397 10.329 14.7803 10.4697C14.921 10.6103 15 10.8011 15 11C15 11.1989 14.921 11.3897 14.7803 11.5303C14.6397 11.671 14.4489 11.75 14.25 11.75H11.25V14.75C11.25 14.9489 11.171 15.1397 11.0303 15.2803C10.8897 15.421 10.6989 15.5 10.5 15.5C10.3011 15.5 10.1103 15.421 9.96967 15.2803C9.82902 15.1397 9.75 14.9489 9.75 14.75V11.75H6.75C6.55109 11.75 6.36032 11.671 6.21967 11.5303C6.07902 11.3897 6 11.1989 6 11C6 10.8011 6.07902 10.6103 6.21967 10.4697C6.36032 10.329 6.55109 10.25 6.75 10.25H9.75V7.25Z" fill="#878FA3"/>
</svg>
