<svg width="10" height="7" viewBox="0 0 10 7" fill="none" xmlns="http://www.w3.org/2000/svg">
<path d="M4.65751 6.65379C4.69573 6.70931 4.74688 6.7547 4.80654 6.78606C4.86621 6.81742 4.9326 6.83381 5 6.83381C5.06741 6.83381 5.1338 6.81742 5.19347 6.78606C5.25313 6.7547 5.30428 6.70931 5.3425 6.65379L9.09251 1.23712C9.13591 1.17465 9.16137 1.10147 9.1661 1.02554C9.17084 0.949616 9.15468 0.873842 9.11937 0.806455C9.08407 0.739068 9.03097 0.682644 8.96585 0.643315C8.90073 0.603986 8.82608 0.583255 8.75001 0.583375H1.25C1.17411 0.583688 1.09973 0.604686 1.03487 0.644109C0.970014 0.683533 0.91713 0.73989 0.881908 0.807122C0.846685 0.874353 0.830456 0.949914 0.834966 1.02568C0.839476 1.10144 0.864555 1.17455 0.907504 1.23712L4.65751 6.65379Z" fill="black"/>
</svg>
