<svg width="46" height="60" viewBox="0 0 46 60" fill="none" xmlns="http://www.w3.org/2000/svg">
<g clip-path="url(#clip0_2_267)">
<path d="M42.1704 60H3.99211C1.87636 60 0.162537 58.2885 0.162537 56.1756V44.434C0.162537 42.3211 1.87636 40.6096 3.99211 40.6096H42.1681C44.2839 40.6096 45.9977 42.3211 45.9977 44.434V56.1756C46 58.2885 44.2861 60 42.1704 60Z" fill="black"/>
<path d="M0.00451904 27.4406C0.00451904 25.8306 -0.00451297 24.2205 0.00677704 22.6105C0.0654851 13.7597 5.49824 5.52688 13.6158 1.96179C15.7202 1.03726 17.906 0.394592 20.1888 0.151056C26.7031 -0.543472 32.5491 1.12069 37.6138 5.29913C41.423 8.44255 43.9272 12.4428 45.1826 17.2166C45.641 18.9574 45.8871 20.7321 45.8916 22.5315C45.9029 25.9478 45.9007 29.3663 45.8939 32.7826C45.8916 34.4648 44.6362 35.8967 43.0307 36.0681C41.2424 36.2598 39.6799 35.1413 39.3344 33.4072C39.2779 33.1254 39.2644 32.83 39.2644 32.5413C39.2599 29.3844 39.2576 26.2252 39.2621 23.0682C39.2644 21.6634 38.6502 20.6261 37.388 20.0195C35.4777 19.1018 33.161 20.3487 32.8584 22.4346C32.8246 22.6691 32.8042 22.9081 32.8042 23.1449C32.7997 26.3334 32.802 29.5219 32.802 32.7104C32.802 34.4062 31.7046 35.7749 30.0314 36.041C27.7373 36.4063 26.1973 34.5618 26.1996 32.9111C26.2018 29.6505 26.1996 26.3875 26.1973 23.1269C26.1951 21.5213 25.2896 20.2653 23.8355 19.8436C21.9252 19.2867 19.9382 20.6193 19.753 22.5857C19.7236 22.9059 19.7056 23.2283 19.7056 23.5485C19.7011 26.6739 19.7078 29.8015 19.6965 32.9269C19.6898 34.6181 18.204 36.0275 16.506 36.0861C14.9864 36.138 13.417 35.0624 13.1235 33.2922C13.0942 33.1096 13.0987 32.9202 13.0987 32.733C13.0964 29.5039 13.0987 26.2725 13.0964 23.0434C13.0964 21.4063 12.0532 20.0804 10.441 19.7827C8.28235 19.3859 6.67691 21.0545 6.65885 22.7097C6.62272 26.0132 6.64304 29.3145 6.63853 32.618C6.63627 33.8424 6.17112 34.8414 5.14373 35.5359C3.24249 36.8212 0.591599 35.7727 0.0858071 33.538C0.022583 33.2584 0.00903504 32.9607 0.00903504 32.6721C0.00226104 30.9268 0.00677704 29.1814 0.00677704 27.4383C0.00226104 27.4406 0.00226104 27.4406 0.00451904 27.4406Z" fill="black"/>
<path d="M6.54818 45.3495C7.67944 45.3495 8.82425 45.6224 9.64164 46.0847V47.9901C8.8378 47.4174 7.76073 47.1332 6.69721 47.1468C5.66079 47.1603 5.14371 47.4467 5.14371 48.0307C5.14371 49.6768 10.3642 49.0657 10.3642 52.4549C10.3642 54.5926 8.64587 55.2579 6.64302 55.2579C5.32209 55.2579 4.09373 54.9444 3.11376 54.401V52.4549C4.20438 53.1765 5.40338 53.4629 6.49399 53.4629C7.59815 53.4629 8.28007 53.2306 8.28007 52.5519C8.28007 50.7682 3.05957 51.4357 3.05957 48.06C3.05957 46.22 4.66727 45.3495 6.54818 45.3495Z" fill="white"/>
<path d="M24.8267 45.539L21.8822 55.0662H19.6604L17.7659 48.5742L15.8714 55.0662H13.6496L10.7051 45.539H12.9135L14.8079 52.7391L16.865 45.539H18.6646L20.7216 52.7391L22.6161 45.539H24.8267Z" fill="white"/>
<path d="M24.3345 55.0685L28.2318 45.5413H30.4401L34.3239 55.0685H32.2104L31.5149 53.2848H27.1525L26.4434 55.0685H24.3345ZM27.7982 51.5981H30.8782L29.5414 48.1818C29.4737 47.9924 29.4059 47.8007 29.3359 47.4332C29.2682 47.8007 29.2005 47.9924 29.1169 48.1818L27.7982 51.5981Z" fill="white"/>
<path d="M38.9866 45.539C41.2898 45.539 43.103 46.2741 43.103 48.7388C43.103 51.2035 41.2898 51.9386 38.9866 51.9386H37.4331V55.0685H35.3896V45.5413H38.9866V45.539ZM39.0837 47.3362H37.4354V50.1414H39.0837C40.1337 50.1414 41.0188 49.855 41.0188 48.7388C41.0188 47.6091 40.1337 47.3362 39.0837 47.3362Z" fill="white"/>
</g>
<defs>
<clipPath id="clip0_2_267">
<rect width="46" height="60" fill="white"/>
</clipPath>
</defs>
</svg>
