<svg width="40" height="40" viewBox="0 0 40 40" fill="none" xmlns="http://www.w3.org/2000/svg">
<path fill-rule="evenodd" clip-rule="evenodd" d="M34 0C37.3137 0 40 2.68629 40 6V34C40 37.3137 37.3137 40 34 40H6C2.68629 40 0 37.3137 0 34V6C0 2.68629 2.68629 0 6 0H34ZM4 34C4 35.1046 4.89543 36 6 36H34C35.1046 36 36 35.1046 36 34V24H29.8C28.9024 28.4218 25.0871 31.7842 20.4511 31.99L20 32C15.3133 32 11.3796 28.7758 10.2959 24.4245L10.2 24H4V34ZM34 4H6C4.89543 4 4 4.89543 4 6V20H12C13.0257 20 13.871 20.7721 13.9865 21.7668L14 22C14 25.3137 16.6863 28 20 28C23.1954 28 25.8073 25.5022 25.9898 22.3525L26.0135 21.7668C26.1201 20.8486 26.8486 20.1201 27.7668 20.0135L28 20H36V6C36 4.89543 35.1046 4 34 4Z" fill="#878FA3"/>
</svg>
