<svg width="27" height="24" viewBox="0 0 27 24" fill="none" xmlns="http://www.w3.org/2000/svg">
<path d="M20.0645 7.26366C19.5802 6.97879 18.9575 6.97879 18.404 7.26366L14.5295 9.6138L11.9003 11.1094L8.095 13.4595C7.61069 13.7444 6.98799 13.7444 6.43449 13.4595L3.4594 11.6079C2.97509 11.323 2.62915 10.7533 2.62915 10.1123V6.55149C2.62915 5.98176 2.9059 5.41202 3.4594 5.05594L6.43449 3.27553C6.91881 2.99066 7.5415 2.99066 8.095 3.27553L11.0701 5.12716C11.5544 5.41202 11.9003 5.98176 11.9003 6.62271V8.97286L14.5295 7.40609V4.98472C14.5295 4.41499 14.2527 3.84526 13.6992 3.48918L8.16419 0.141995C7.67987 -0.142872 7.05718 -0.142872 6.50368 0.141995L0.830257 3.56039C0.276752 3.84526 0 4.41499 0 4.98472V11.6791C0 12.2488 0.276752 12.8186 0.830257 13.1746L6.43449 16.5218C6.91881 16.8067 7.5415 16.8067 8.095 16.5218L11.9003 14.2429L14.5295 12.6761L18.3348 10.3972C18.8191 10.1123 19.4418 10.1123 19.9953 10.3972L22.9704 12.1776C23.4548 12.4625 23.8007 13.0322 23.8007 13.6732V17.234C23.8007 17.8037 23.5239 18.3734 22.9704 18.7295L20.0645 20.5099C19.5802 20.7948 18.9575 20.7948 18.404 20.5099L15.4289 18.7295C14.9446 18.4447 14.5987 17.8749 14.5987 17.234V14.9551L11.9695 16.5218V18.872C11.9695 19.4417 12.2463 20.0114 12.7998 20.3675L18.404 23.7147C18.8883 23.9996 19.511 23.9996 20.0645 23.7147L25.6688 20.3675C26.1531 20.0826 26.499 19.5129 26.499 18.872V12.1064C26.499 11.5367 26.2223 10.9669 25.6688 10.6108L20.0645 7.26366Z" fill="#8247E5"/>
</svg>
